<mxfile host="app.diagrams.net" modified="2023-11-30T02:28:22.922Z" agent="Mozilla/5.0 (Windows NT 10.0; Win64; x64) AppleWebKit/537.36 (KHTML, like Gecko) Chrome/119.0.0.0 Safari/537.36" etag="EdE9RpPAPpG5XSMmFTR9" version="22.1.4" type="github">
  <diagram name="Page-1" id="M_UugY_NXWPGBNVr_hrX">
    <mxGraphModel dx="985" dy="444" grid="1" gridSize="10" guides="1" tooltips="1" connect="1" arrows="1" fold="1" page="1" pageScale="1" pageWidth="1169" pageHeight="827" math="0" shadow="0">
      <root>
        <mxCell id="0" />
        <mxCell id="1" parent="0" />
        <mxCell id="zU0l_08LZlELBBx7HQ0t-1" value="" style="shape=internalStorage;whiteSpace=wrap;html=1;backgroundOutline=1;dx=290;dy=40;" vertex="1" parent="1">
          <mxGeometry x="310" y="40" width="580" height="740" as="geometry" />
        </mxCell>
        <mxCell id="zU0l_08LZlELBBx7HQ0t-2" value="User" style="text;html=1;strokeColor=none;fillColor=none;align=center;verticalAlign=middle;whiteSpace=wrap;rounded=0;" vertex="1" parent="1">
          <mxGeometry x="410" y="50" width="60" height="30" as="geometry" />
        </mxCell>
        <mxCell id="zU0l_08LZlELBBx7HQ0t-3" value="System" style="text;html=1;strokeColor=none;fillColor=none;align=center;verticalAlign=middle;whiteSpace=wrap;rounded=0;" vertex="1" parent="1">
          <mxGeometry x="730" y="50" width="60" height="30" as="geometry" />
        </mxCell>
      </root>
    </mxGraphModel>
  </diagram>
</mxfile>
